<svg version="1.2" xmlns="http://www.w3.org/2000/svg" viewBox="0 0 600 600" width="600" height="600">
	<title>dl</title>
	<style>
		.s0 { fill: #dc9b7a } 
		.s1 { fill: #ea580c } 
		.s2 { fill: #f6d8c9 } 
	</style>
	<g id="Folder 1">
		<path id="Layer" class="s0" d="m181.1 234c0 0-0.2 0.3-0.5 0.7-2.4 5-4.5 9.7-6.5 14.3 0 0-0.1 0.4-0.4 0.7-0.4 0.7-0.5 1-0.7 1.3-10.2 26.7-11.7 54-5 81.8 0.3 1.3 0.4 2.7 1 3.9 5 8.7 2.2 15.1-5.3 21-5.4 4.3-9.8 10-14.7 15.2-25.7-45.3-28.8-129.7 29.7-190.1 62.2-64.3 162.5-68.4 228.5-12.8 70.3 59.1 82.1 158.3 27.5 231.2-54.2 72.4-146.4 81.7-207.9 50.3 5.5-5.4 11.3-10.1 15.9-15.9 5.6-7 10.9-7.9 19.8-5.3 76.7 22.8 158-27.5 171.1-106.2 8.5-50.8-7.3-93.6-46.3-128.3-0.7-0.5-1-0.7-1.3-0.8-0.7-0.7-1.4-1.3-2.5-2.4-2.7-1.9-5-3.4-7.2-4.9 0 0-0.1 0.3-0.2-0.1-2.5-1.9-4.8-3.2-7.1-4.6 0 0-0.2-0.3-0.6-0.6-7.7-3.6-15.1-7-22.4-10.3 0 0-0.4-0.2-0.8-0.5-3.4-1-6.3-1.8-9.2-2.6-0.3-0.1-0.6-0.3-1.5-0.6-14.6-4.1-28.9-5.4-43.5-4.1-0.7 0-1.5 0-3 0-5 0.8-9.3 1.6-13.6 2.3-0.6 0.1-1.2 0.1-2.5 0.2-5.4 1.5-10.1 2.9-14.9 4.2 0 0 0 0-0.4 0-2.5 0.9-4.7 1.9-6.9 2.8 0 0-0.4 0-0.9 0.1-5.1 2.4-9.6 4.6-14.1 6.9 0 0-0.4 0.1-0.8 0.2-1.3 0.8-2.1 1.4-3 1.9 0 0 0.1 0.1-0.3 0.1-2.7 1.7-5.1 3.4-7.6 5 0 0 0 0-0.3 0-1.9 1.4-3.4 2.6-4.9 3.9-0.9 0.5-1.7 1.1-2.9 1.9-0.6 0.6-0.8 0.9-1 1.1 0 0 0.1 0.1-0.3 0.1-2.1 1.7-3.8 3.4-5.6 5 0 0 0 0-0.2 0.1-0.5 0.3-0.6 0.6-0.8 0.9 0 0 0 0-0.3 0.1-1.1 1-1.9 1.9-2.7 2.9 0 0 0 0-0.3 0.1-0.4 0.3-0.6 0.6-0.7 0.9 0 0 0 0-0.3 0.1-0.4 0.3-0.5 0.6-0.7 0.9 0 0 0 0-0.3 0.1-0.4 0.3-0.5 0.6-0.7 0.9 0 0 0 0-0.3 0.1-0.4 0.3-0.5 0.6-0.7 0.9-1 1-2 2-3.4 3.5-3.1 4.1-5.8 7.8-8.6 11.5 0 0 0 0-0.3 0.2-1.4 2-2.5 3.9-3.6 5.8 0 0-0.3 0.2-0.5 0.6-0.4 0.6-0.6 1-0.7 1.4 0 0 0.1 0-0.2 0.1-0.7 1.1-1.1 2-1.6 2.9z"/>
		<path id="Layer" fill-rule="evenodd" class="s1" d="m222 230c0.2-0.2 0.4-0.5 1.1-0.9 0.8-0.6 1-1.1 1.2-1.6 0 0 0.1-0.1 0.6 0 1.1-0.9 1.7-1.9 2.4-2.9 0 0 0.1-0.2 0.5-0.1 0.6-0.5 0.9-1 1.2-1.5 0 0 0 0 0.3 0 0.6-0.5 0.9-1 1.2-1.5 0 0 0.1 0 0.4 0.1 3.1-2.3 5.8-4.7 8.5-7.1 0 0 0.1 0 0.4 0 0.5-0.3 0.7-0.6 0.9-0.8 0 0 0.2 0.3 0.5 0.2 3.3-2.1 6.4-4.2 9.5-6.3 0 0 0.2 0.4 0.5 0.3 1.8-1 3.3-2 4.8-3 0.5-0.3 0.9-0.5 1.9-0.6 7.3-1.7 14-3.7 20.6-5.7 1.9-0.6 3.7-1.5 5.5-2.2 0.5-0.1 0.9-0.2 2 0 2.5 0.4 4.3 0.6 6.1 0.5 13.8-0.1 27.5 0 40.7 4.8 1 0.4 2.3 0 3.4 0 0 0-0.1 0.2 0.1 0.4 4.4 2 8.7 3.8 13 5.5 0 0-0.3 0.3-0.1 0.5 1.1 0.4 1.9 0.7 2.7 0.9 0 0 0.1 0 0.1 0.4 2.5 1.7 4.9 3 7.3 4.3 0 0-0.2 0.2-0.1 0.4 0.5 0.2 0.8 0.2 1.2 0.3 0 0 0 0.1 0.1 0.4 0.6 0.6 1.1 0.8 1.7 1 0 0-0.1 0.2 0 0.3 0.5 0.3 0.8 0.4 1.1 0.5 0 0-0.1 0.2 0 0.4 0.4 0.3 0.7 0.3 1.1 0.4 0 0 0 0.1 0.1 0.4 0.5 0.6 1.1 0.9 1.6 1.1 0 0-0.1 0.1 0.1 0.3 0.4 0.3 0.8 0.5 1.1 0.7 0.3 0 0.5 0.1 0.8 0.9 1.3 1.4 2.6 2.3 3.9 3.2 0 0 0 0 0 0.4 0.8 0.9 1.6 1.4 2.4 1.9 0 0 0.2 0.2 0.2 0.5 0.2 0.4 0.5 0.5 0.8 0.6 0 0 0.1 0.1 0.1 0.4 0.3 0.4 0.6 0.5 0.9 0.6 0 0 0 0.1 0.1 0.4 0.3 0.5 0.6 0.6 0.9 0.7 0 0 0 0.1 0 0.4 0.3 0.4 0.6 0.6 0.9 0.8 0 0-0.2 0.3-0.2 0.5 1.1 1 2 1.9 3 2.7 0 0-0.1 0.1 0 0.4 0.4 0.6 0.9 0.9 1.3 1.2 0 0 0 0.1 0 0.4 0.3 0.4 0.6 0.6 0.9 0.8 0 0-0.3 0.3-0.2 0.5 0.8 0.9 1.6 1.6 2.4 2.3 0 0 0 0.1-0.1 0.4 0.3 0.5 0.6 0.7 0.9 0.9 0 0-0.3 0.2-0.2 0.4 1.1 1.7 2.2 3 3.3 4.4 0 0-0.2 0.2-0.2 0.5 2.1 3.7 4.1 7.2 6.1 10.7 0 0-0.2 0.2-0.2 0.5 6.7 17.4 9.1 35.1 8 53.4-0.1 0.7 0.5 1.5 0.7 2.3 0 0.4 0 0.9-0.4 1.7-0.4 1.4-0.4 2.3-0.4 3.3 0 0.4 0 0.9-0.5 1.7-2.1 6.5-3.6 12.5-5.2 18.5 0 0-0.2-0.1-0.4 0-2.5 5.1-4.6 10-6.8 14.9 0 0-0.1-0.1-0.4 0-1.4 2-2.5 4.1-3.5 6.1 0 0-0.1-0.1-0.3 0-0.3 0.4-0.4 0.8-0.5 1.1 0 0-0.4-0.3-0.6-0.1-2.6 3.5-5.1 6.8-7.5 10.1 0 0-0.3-0.3-0.4-0.1-0.3 0.5-0.4 0.8-0.5 1.1 0 0-0.3-0.3-0.5-0.1-0.2 0.5-0.3 0.8-0.5 1.2 0 0-0.3-0.3-0.5-0.2-0.4 0.7-0.7 1.2-0.9 1.7 0 0 0 0.1-0.4 0.1-0.6 0.5-0.9 0.9-1.2 1.4 0 0-0.3-0.4-0.4-0.2-0.3 0.5-0.5 0.8-0.6 1.1 0 0-0.4-0.2-0.6-0.1-3.6 3.1-7 6.1-10.5 9.2 0 0-0.2-0.4-0.4-0.2-0.3 0.4-0.6 0.7-0.8 1 0 0 0-0.2-0.4-0.1-8.8 3.7-17.3 7.6-25.9 11.3-17.2 7.3-35.1 7.1-53.1 3.9-7.7-1.4-15.3-4-22.9-6.1 0 0 0.1-0.1 0-0.4-3.8-1.9-7.4-3.7-11.1-5.4q0 0 0-0.2c-0.2-0.1-0.3 0.1-0.5 0.2-27.9 27.9-55.9 55.8-83.7 83.7-7.3 7.3-15.7 10.1-25.5 7.3-18-5.1-23.7-27.4-10.4-40.9 18.1-18.4 36.5-36.6 54.8-54.9 9-9 18.2-18 27.1-27.2 1.1-1.1 1.2-3.2 1.6-5.5-0.5-1.3-1-2-1.5-2.6 0 0 0.3-0.3 0.3-0.5-0.8-1.3-1.5-2.4-2.3-3.5 0 0 0.4-0.1 0.3-0.4-1.4-3.2-2.8-5.9-4.2-8.7 0 0 0.2-0.1 0.2-0.5-1.3-7.6-2.9-14.8-4-22.1-2.5-17.5-1.2-34.6 5.7-51.1 0.6-1.3 0.3-3 0.4-4.5 0.2-0.5 0.4-1.1 1.1-1.9 1.3-2 2-3.8 2.7-5.7 0 0 0-0.2 0.4-0.4 1.2-1.8 2-3.4 2.7-5.1 0 0 0.1 0.1 0.4 0 1-1.4 1.7-2.8 2.4-4.2 0 0 0.3 0.2 0.4 0.1 0.4-0.8 0.6-1.3 0.8-1.9 0 0 0.1 0.1 0.4 0 2-2.4 3.7-4.8 5.3-7.2 0 0 0.4 0.3 0.5 0.1 0.4-0.7 0.7-1.2 0.9-1.8zm42 132.6c1.3 0.7 2.6 1.5 4 2.1 27.1 12.3 53.1 10.2 76.6-8.2 23.1-18.2 31.7-42.9 25.9-71.6-6.6-32.3-34.9-55.9-66.7-57-34.5-1.2-63.6 19.5-73.2 52-9.3 31.4 4.1 65.1 33.4 82.7z"/>
		<path id="Layer" class="s2" d="m168.2 105.2c26.6-18.2 55.5-30.3 86.8-35.7 17.6-3 35.7-4.5 53.5-4.1 35.1 0.8 68.8 9.1 99.8 26 14.6 8 28.1 18.2 42 27.5 0.7 0.4 1.1 1.2 1.4 1.6-9.5 9.4-18.7 18.6-28.4 28.2-35.6-28.5-77.1-43.3-123.2-43.4-46.1 0-87.7 14.7-123.5 43.5-9.5-9.6-18.7-18.8-28.7-28.8q9.7-7 20.3-14.8z"/>
		<path id="Layer" class="s2" d="m486.1 236.8c-7.3-22.6-18.8-42.4-33-60.3 9.7-9.5 19-18.7 28.2-27.9 75.1 84.1 72.9 221.1 0.1 302.9-9.1-9.3-18.3-18.6-27.3-27.9 6.3-10.1 13.5-20.8 19.8-32.1 10.5-18.9 17.2-39.2 20.1-60.6 1.2-8.9 2.5-17.8 2.7-26.7 0.1-9.8-0.3-19.7-1.9-29.3-2.1-12.7-5.6-25.1-8.7-38.1z"/>
		<path id="Layer" class="s2" d="m216.4 521.7c-14-5.4-27.2-11.4-39.6-19.6 9.4-9.5 18.3-18.8 27.6-27.7 1-1 4.3-0.2 6.2 0.6 10.2 4 20.1 8.8 30.4 12.4 24.9 8.7 50.9 10.5 76.8 8.3 34.7-2.9 66.7-14.5 95.2-35 3.5-2.5 7.1-4.9 9.9-6.8 9.4 9.2 18.8 18.5 28.7 28.2-5.7 4.3-11.8 9.3-18.4 13.7-29.8 20.4-62.6 33.4-98.4 38.3-9.6 1.3-19.2 2.5-28.7 2.7-30.7 0.7-60.5-4.2-89.7-15.1z"/>
		<path id="Layer" class="s2" d="m144.8 178.9c-12.4 16.6-22.6 34-29.4 53.3-6.5 18.2-10.6 36.8-11.6 56.3-1.3 23.6 1.1 46.7 8.3 69.2 3.6 11 8.4 21.6 13 32.3 1.3 2.9 1.1 4.5-1.1 6.8-7.9 7.8-15.5 15.8-23.2 23.8-0.8 0.8-1.7 1.5-3 2.7-25.2-41-36.4-85.3-34.5-132.7 2.1-53.6 20.5-101.3 55.6-143.2 3.5 3.4 6.6 6.6 9.7 9.7 5.5 5.4 10.8 10.9 16.3 16.2 2 1.9 2.3 3.5-0.1 5.6z"/>
	</g>
</svg>